<svg xmlns="http://www.w3.org/2000/svg" width="241" height="204" fill="none"><path fill="#002C48" d="m9.46 163.176-2.234 3.653-.013 12.298L0 179.114l.053-40.021 7.213.013-.027 17.435 9.474-17.422h7.213l-10.064 17.83 10.011 22.191h-7.41L9.46 163.176ZM52.967 169.974c0 1.455.335 2.48 1.012 3.074.673.588 1.576.881 2.706.881 1.137 0 2.05-.293 2.733-.881.683-.584 1.025-1.606 1.025-3.061l.026-21.614c0-1.445-.341-2.463-1.025-3.061-.676-.595-1.583-.893-2.72-.893-1.13 0-2.036.298-2.72.893-.676.588-1.01 1.603-1.01 3.048l-.027 21.614Zm-7.187-21.22c0-3.238.94-5.722 2.825-7.449 1.882-1.735 4.592-2.602 8.133-2.602 3.547.01 6.257.88 8.133 2.615 1.872 1.734 2.812 4.224 2.812 7.463l-.027 20.812c-.01 3.242-.956 5.728-2.838 7.463-1.875 1.734-4.585 2.594-8.133 2.588-3.54 0-6.25-.867-8.133-2.602-1.875-1.74-2.808-4.234-2.798-7.476l.026-20.812ZM102.782 156.944l10.104.013-.013 12.692c-.01 3.242-.92 5.728-2.733 7.463-1.813 1.734-4.493 2.595-8.041 2.588-3.54 0-6.214-.867-8.028-2.601-1.813-1.741-2.716-4.234-2.706-7.476l.026-20.812c0-3.239.907-5.722 2.72-7.45 1.82-1.735 4.5-2.602 8.041-2.602 3.547.01 6.221.881 8.028 2.615 1.813 1.734 2.719 4.224 2.719 7.463l-.013 3.889h-6.819l.013-4.296c0-1.446-.341-2.464-1.025-3.062-.676-.594-1.583-.893-2.719-.893-1.13 0-2.037.299-2.72.893-.677.588-1.012 1.603-1.012 3.048l-.026 21.614c0 1.455.335 2.467 1.012 3.035.673.571 1.576.854 2.706.854 1.137 0 2.05-.279 2.733-.841.683-.568 1.025-1.58 1.025-3.035l.013-7.371-3.285-.013v-5.715ZM143.625 150.311l-.039 28.985-6.491-.013.053-40.021 9.052.013 7.371 23.965.039-23.952h6.425l-.052 40.021h-7.41l-8.948-28.998ZM184.856 139.32l7.213.013-.053 40.021-7.213-.013.053-40.021ZM240.262 179.407h-7.279l-1.235-7.266-8.855-.013-1.262 7.266-6.622-.013 7.397-40.008 10.564.013 7.292 40.021Zm-16.45-12.705 6.951.013-3.456-20.26-3.495 20.247ZM0 188.997v6.451c0 3.39 1.63 4.717 3.653 4.717 2.128 0 3.823-1.419 3.823-4.783v-6.438H5.978v6.53c0 2.431-.828 3.456-2.286 3.456-1.314 0-2.194-.999-2.194-3.456v-6.53H0v.053ZM13.926 199.981h1.393v-4.756c0-.25.026-.5.092-.67.21-.802.775-1.432 1.616-1.432 1.222 0 1.524 1.024 1.524 2.286v4.572h1.51v-4.73c0-2.693-1.628-3.39-2.614-3.39-1.17 0-2.076.736-2.404 1.472h.144l-.079-1.301h-1.353c.04.696.053 1.366.053 2.181v5.768h.118ZM26.428 199.981h1.392v-11.615h-1.51v11.615h.118ZM40.06 196.276c.012-.145.039-.368.039-.67 0-1.445-.71-3.745-3.022-3.745-2.063 0-3.442 1.905-3.442 4.283 0 2.379 1.419 3.995 3.6 3.995 1.13 0 1.905-.25 2.456-.526l-.25-1.09c-.551.249-1.103.433-2.023.433-1.287 0-2.299-.749-2.325-2.654h4.953l.013-.026Zm-4.954-1.025c.092-.985.565-2.286 1.866-2.286 1.445 0 1.681 1.379 1.668 2.233h-3.534v.053ZM51.167 199.955a13.63 13.63 0 0 1-.118-1.892v-2.943c0-1.577-.617-3.259-2.785-3.259-.894 0-1.827.289-2.444.723l.341 1.09c.644-.459 1.249-.683 1.905-.683 1.459 0 1.498 1.143 1.498 1.787v.118c-2.614-.013-4.257 1.065-4.257 2.97 0 1.143.854 2.299 2.286 2.299 1 0 1.84-.552 2.221-1.169h-.118l.105.985h1.366v-.026Zm-1.576-2.654c0 .144-.027.302-.066.46-.21.657-.683 1.261-1.603 1.261-.657 0-1.104-.394-1.104-1.314 0-1.524 1.485-1.774 2.773-1.747v1.34ZM56.834 199.613c.5.315 1.3.526 2.076.526 1.682 0 2.746-.999 2.746-2.378 0-1.183-.736-1.906-1.958-2.431-.92-.381-1.248-.631-1.248-1.288 0-.578.328-1.038 1.09-1.038.657 0 1.078.263 1.498.552l.368-1.182c-.42-.276-1.13-.513-1.84-.513-1.523 0-2.561 1.078-2.561 2.352 0 .946.722 1.748 1.984 2.26.959.381 1.208.723 1.208 1.406 0 .657-.328 1.13-1.26 1.13-.645 0-1.25-.276-1.775-.657l-.354 1.222.026.039ZM67.589 199.981h1.393v-4.783c0-.275.013-.486.092-.683.223-.775.788-1.393 1.616-1.393 1.222 0 1.524 1.038 1.524 2.313v4.546h1.51v-4.717c0-2.706-1.628-3.403-2.574-3.403-.487 0-1.025.171-1.406.421a2.332 2.332 0 0 0-.907.985h.145v-4.901H67.47v11.615h.118ZM87.761 190.193v1.839h-1.103v1.169h1.103v4.257c0 .933.158 1.656.526 2.089.302.381.867.592 1.471.592.5 0 .894-.079 1.249-.224l-.08-1.156a2.6 2.6 0 0 1-.827.131c-.723 0-.867-.499-.867-1.471v-4.218h1.84v-1.169h-1.84v-2.286l-1.472.433v.014ZM96.804 199.981h1.393v-4.783c0-.275.013-.486.092-.683.223-.775.788-1.393 1.616-1.393 1.222 0 1.524 1.038 1.524 2.313v4.546h1.511v-4.717c0-2.706-1.629-3.403-2.575-3.403-.486 0-1.025.171-1.406.421a2.332 2.332 0 0 0-.907.985h.145v-4.901h-1.511v11.615h.118ZM115.1 196.276c.013-.145.04-.368.04-.67 0-1.445-.71-3.745-3.022-3.745-2.063 0-3.443 1.905-3.443 4.283 0 2.379 1.419 3.995 3.6 3.995 1.13 0 1.905-.25 2.457-.526l-.249-1.09c-.552.249-1.104.433-2.024.433-1.287 0-2.299-.749-2.325-2.654h4.953l.013-.026Zm-4.953-1.025c.092-.985.565-2.286 1.866-2.286 1.445 0 1.681 1.379 1.668 2.233h-3.534v.053ZM128.505 203.2h1.379v-4.27h-.144c.407.775 1.314 1.235 2.247 1.235 1.668 0 3.324-1.432 3.324-4.257 0-2.391-1.393-4.047-3.101-4.047-1.156 0-2.076.578-2.588 1.524h.144l-.052-1.353h-1.38c.026.801.053 1.616.053 2.615v8.553h.118Zm1.379-7.804c0-.198.04-.408.092-.579.237-1.077.959-1.747 1.84-1.747 1.353 0 1.984 1.314 1.984 2.891 0 1.813-.67 2.995-2.037 2.995-.92 0-1.59-.63-1.826-1.629a3.81 3.81 0 0 1-.053-.578v-1.353ZM144.207 191.861c-1.958 0-3.626 1.59-3.626 4.218 0 2.483 1.602 4.086 3.521 4.086 1.708 0 3.626-1.301 3.626-4.218 0-2.404-1.485-4.086-3.521-4.086Zm-.026 1.143c1.524 0 2.01 1.669 2.01 2.996 0 1.774-.815 3.009-2.037 3.009-1.261 0-2.049-1.248-2.049-2.983 0-1.484.551-3.022 2.076-3.022ZM152.603 192.085l2.155 7.896h1.353l1.157-3.771c.249-.841.473-1.655.63-2.562h-.157c.157.894.367 1.669.617 2.549l1.091 3.784h1.366l2.299-7.949h-1.484l-1.025 3.994c-.237.933-.421 1.761-.526 2.51h.145a33.08 33.08 0 0 0-.618-2.523l-1.103-3.981h-1.275l-1.169 4.06c-.237.854-.473 1.695-.618 2.444h.145c-.118-.762-.302-1.577-.513-2.457l-.946-4.047h-1.524v.053ZM174.32 196.276c.013-.145.039-.368.039-.67 0-1.445-.709-3.745-3.022-3.745-2.063 0-3.442 1.905-3.442 4.283 0 2.379 1.419 3.995 3.6 3.995 1.13 0 1.905-.25 2.457-.526l-.25-1.09c-.552.249-1.104.433-2.023.433-1.288 0-2.3-.749-2.326-2.654h4.953l.014-.026Zm-4.954-1.025c.092-.985.565-2.286 1.866-2.286 1.445 0 1.682 1.379 1.669 2.233h-3.535v.053ZM180.238 199.981h1.379v-4.231c0-.236.027-.46.053-.657.184-1.077.722-1.813 1.629-1.813.171 0 .302.026.539.092v-1.432a1.408 1.408 0 0 0-.473-.079c-.854 0-1.748.71-2.063 1.721h.158l-.053-1.55h-1.34c.039.775.052 1.577.052 2.51v5.439h.119ZM199.888 191.861c-1.958 0-3.627 1.59-3.627 4.218 0 2.483 1.603 4.086 3.522 4.086 1.708 0 3.626-1.301 3.626-4.218 0-2.404-1.485-4.086-3.521-4.086Zm-.026 1.143c1.524 0 2.01 1.669 2.01 2.996 0 1.774-.815 3.009-2.037 3.009-1.261 0-2.049-1.248-2.049-2.983 0-1.484.551-3.022 2.076-3.022ZM210.817 199.955v-6.754h1.708v-1.169h-1.708v-.368c0-1.209.171-2.247 1.275-2.247.368 0 .63.079.906.224l.184-1.183a2.92 2.92 0 0 0-1.195-.276c-.605 0-1.327.224-1.814.749-.604.631-.854 1.669-.854 2.773v.328h-.985v1.169h.985v6.78h1.498v-.026ZM230.468 196.499l1.065 3.482h1.576l-3.39-11.037h-1.721l-3.376 11.037h1.537l1.025-3.442h3.297l-.013-.04Zm-3.008-1.103.959-3.167c.197-.67.354-1.327.486-1.944h-.158c.132.591.276 1.248.499 1.957l.946 3.101h-2.719l-.013.053ZM238.719 188.997v10.984h1.484v-11.037h-1.484v.053Z"/><mask id="a" width="102" height="117" x="58" y="0" maskUnits="userSpaceOnUse" style="mask-type:luminance"><path fill="#fff" d="M58.652 0h100.906v116.884H58.652V0Z"/></mask><g mask="url(#a)"><mask id="b" width="102" height="117" x="58" y="0" maskUnits="userSpaceOnUse" style="mask-type:luminance"><path fill="#fff" d="M101.465 58.317 159.489.292h-42.783L58.685 58.317l58.021 58.018h42.78l-58.021-58.018Z"/></mask><g mask="url(#b)"><path fill="url(#c)" d="M205.531 23.006 78.416-39.702 12.643 93.62l127.115 62.712 65.773-133.327Z"/></g></g><mask id="d" width="29" height="29" x="58" y="88" maskUnits="userSpaceOnUse" style="mask-type:luminance"><path fill="#fff" d="M58.652 88.293H86.4v28.591h-27.75v-28.59Z"/></mask><g mask="url(#d)"><mask id="e" width="29" height="29" x="58" y="88" maskUnits="userSpaceOnUse" style="mask-type:luminance"><path fill="#fff" d="M86.29 116.335 58.684 88.73v27.605H86.29Z"/></mask><g mask="url(#e)"><path fill="#FF39EF" d="M97.244 94.134 64.088 77.779 47.73 110.932l33.156 16.358 16.358-33.156Z"/></g></g><mask id="f" width="36" height="31" x="134" y="35" maskUnits="userSpaceOnUse" style="mask-type:luminance"><path fill="#fff" d="M134.332 35.317h35.317V65.59h-35.317V35.317Z"/></mask><g mask="url(#f)"><mask id="g" width="36" height="30" x="134" y="36" maskUnits="userSpaceOnUse" style="mask-type:luminance"><path fill="#fff" d="m134.742 53.41 13.901 11.913c-3.505-12.498 20.851-19.86 20.851-19.86l-12.909-9.433c-2.273 15.008-17.06 14.949-21.843 17.38Z"/></mask><g mask="url(#g)"><path fill="url(#h)" d="m183.704 47.123-35.803-27.95-27.369 35.061 35.804 27.95 27.368-35.061Z"/></g></g><mask id="i" width="36" height="40" x="134" y="58" maskUnits="userSpaceOnUse" style="mask-type:luminance"><path fill="#fff" d="M134.332 58.862h35.317v38.681h-35.317v-38.68Z"/></mask><g mask="url(#i)"><mask id="j" width="36" height="38" x="134" y="59" maskUnits="userSpaceOnUse" style="mask-type:luminance"><path fill="#fff" d="M134.742 73.269c-.115.112-.151 1.031 0 .992 14.374-3.83 23.952 22.537 23.952 22.537l10.547-12.985c-18.325-3.61-22.089-24.448-22.089-24.448l-12.41 13.904Z"/></mask><g mask="url(#j)"><path fill="url(#k)" d="M187.396 73.538 147.71 42.557l-31.277 40.067 39.689 30.981 31.274-40.067Z"/></g></g><mask id="l" width="28" height="27" x="152" y="76" maskUnits="userSpaceOnUse" style="mask-type:luminance"><path fill="#fff" d="M152.831 76.52h26.909v26.068h-26.909V76.521Z"/></mask><g mask="url(#l)"><mask id="m" width="27" height="27" x="153" y="76" maskUnits="userSpaceOnUse" style="mask-type:luminance"><path fill="#fff" d="M153.61 89.653c0 7.128 5.778 12.909 12.905 12.909 7.132 0 12.913-5.78 12.913-12.909 0-7.13-5.781-12.909-12.913-12.909-7.127 0-12.905 5.778-12.905 12.91Z"/></mask><g mask="url(#m)"><path fill="url(#n)" d="m191.949 86.52-28.564-22.3-22.3 28.567 28.564 22.297 22.3-28.564Z"/></g></g><mask id="o" width="28" height="28" x="154" y="22" maskUnits="userSpaceOnUse" style="mask-type:luminance"><path fill="#fff" d="M154.513 22.704h26.908v26.908h-26.908V22.704Z"/></mask><g mask="url(#o)"><mask id="p" width="26" height="26" x="155" y="23" maskUnits="userSpaceOnUse" style="mask-type:luminance"><path fill="#fff" d="M155.091 36.017c0 7.128 5.781 12.909 12.912 12.909 7.128 0 12.909-5.781 12.909-12.91 0-7.127-5.781-12.908-12.909-12.908-7.131 0-12.912 5.781-12.912 12.909Z"/></mask><g mask="url(#p)"><path fill="url(#q)" d="m193.433 32.883-28.564-22.3-22.299 28.568 28.563 22.3 22.3-28.568Z"/></g></g><mask id="r" width="28" height="28" x="124" y="48" maskUnits="userSpaceOnUse" style="mask-type:luminance"><path fill="#fff" d="M124.241 48.772h26.908V75.68h-26.908V48.771Z"/></mask><g mask="url(#r)"><mask id="s" width="27" height="27" x="124" y="49" maskUnits="userSpaceOnUse" style="mask-type:luminance"><path fill="#fff" d="M124.829 62.354c0 7.124 5.774 12.899 12.899 12.899 7.124 0 12.902-5.775 12.902-12.9 0-7.124-5.778-12.898-12.902-12.898-7.125 0-12.899 5.774-12.899 12.899Z"/></mask><g mask="url(#s)"><path fill="url(#t)" d="M163.141 59.224 134.597 36.94l-22.283 28.544 28.547 22.284 22.28-28.544Z"/></g></g><defs><linearGradient id="c" x1="153.483" x2="87.709" y1="-2.669" y2="130.655" gradientUnits="userSpaceOnUse"><stop stop-color="#43CBFB"/><stop offset=".004" stop-color="#44CAFB"/><stop offset=".008" stop-color="#45C9FB"/><stop offset=".012" stop-color="#47C8FB"/><stop offset=".016" stop-color="#48C7FA"/><stop offset=".02" stop-color="#49C6FA"/><stop offset=".023" stop-color="#4AC5FA"/><stop offset=".027" stop-color="#4BC4FA"/><stop offset=".031" stop-color="#4DC4FA"/><stop offset=".035" stop-color="#4EC3FA"/><stop offset=".039" stop-color="#4FC2FA"/><stop offset=".043" stop-color="#50C1FA"/><stop offset=".047" stop-color="#51C0FA"/><stop offset=".051" stop-color="#53BFFA"/><stop offset=".055" stop-color="#54BEFA"/><stop offset=".059" stop-color="#55BDFA"/><stop offset=".063" stop-color="#56BCFA"/><stop offset=".066" stop-color="#57BBFA"/><stop offset=".07" stop-color="#59BAF9"/><stop offset=".074" stop-color="#5AB9F9"/><stop offset=".078" stop-color="#5BB8F9"/><stop offset=".082" stop-color="#5CB7F9"/><stop offset=".086" stop-color="#5DB6F9"/><stop offset=".09" stop-color="#5FB6F9"/><stop offset=".094" stop-color="#60B5F9"/><stop offset=".098" stop-color="#61B4F9"/><stop offset=".102" stop-color="#62B3F9"/><stop offset=".105" stop-color="#63B2F9"/><stop offset=".109" stop-color="#65B1F9"/><stop offset=".113" stop-color="#66B0F9"/><stop offset=".117" stop-color="#67AFF9"/><stop offset=".121" stop-color="#68AEF8"/><stop offset=".125" stop-color="#69ADF8"/><stop offset=".129" stop-color="#6AACF8"/><stop offset=".133" stop-color="#6CABF8"/><stop offset=".137" stop-color="#6DAAF8"/><stop offset=".141" stop-color="#6EAAF8"/><stop offset=".145" stop-color="#6FA9F8"/><stop offset=".148" stop-color="#70A8F8"/><stop offset=".152" stop-color="#72A7F8"/><stop offset=".156" stop-color="#73A6F8"/><stop offset=".16" stop-color="#74A5F8"/><stop offset=".164" stop-color="#75A4F8"/><stop offset=".168" stop-color="#76A3F8"/><stop offset=".172" stop-color="#77A2F8"/><stop offset=".176" stop-color="#78A1F7"/><stop offset=".18" stop-color="#7AA1F7"/><stop offset=".184" stop-color="#7BA0F7"/><stop offset=".188" stop-color="#7C9FF7"/><stop offset=".191" stop-color="#7D9EF7"/><stop offset=".195" stop-color="#7E9DF7"/><stop offset=".199" stop-color="#7F9CF7"/><stop offset=".203" stop-color="#819BF7"/><stop offset=".207" stop-color="#829AF7"/><stop offset=".211" stop-color="#8399F7"/><stop offset=".215" stop-color="#8499F7"/><stop offset=".219" stop-color="#8598F7"/><stop offset=".223" stop-color="#8697F7"/><stop offset=".227" stop-color="#8796F7"/><stop offset=".23" stop-color="#8995F6"/><stop offset=".234" stop-color="#8A94F6"/><stop offset=".238" stop-color="#8B93F6"/><stop offset=".242" stop-color="#8C92F6"/><stop offset=".246" stop-color="#8D91F6"/><stop offset=".25" stop-color="#8E91F6"/><stop offset=".254" stop-color="#8F90F6"/><stop offset=".258" stop-color="#908FF6"/><stop offset=".262" stop-color="#928EF6"/><stop offset=".266" stop-color="#938DF6"/><stop offset=".27" stop-color="#948CF6"/><stop offset=".273" stop-color="#958BF6"/><stop offset=".277" stop-color="#968AF6"/><stop offset=".281" stop-color="#978AF6"/><stop offset=".285" stop-color="#9889F5"/><stop offset=".289" stop-color="#9988F5"/><stop offset=".293" stop-color="#9A87F5"/><stop offset=".297" stop-color="#9C86F5"/><stop offset=".301" stop-color="#9D85F5"/><stop offset=".305" stop-color="#9E84F5"/><stop offset=".309" stop-color="#9F84F5"/><stop offset=".313" stop-color="#A083F5"/><stop offset=".316" stop-color="#A182F5"/><stop offset=".32" stop-color="#A281F5"/><stop offset=".324" stop-color="#A380F5"/><stop offset=".328" stop-color="#A47FF5"/><stop offset=".332" stop-color="#A57FF5"/><stop offset=".336" stop-color="#A77EF5"/><stop offset=".34" stop-color="#A87DF4"/><stop offset=".344" stop-color="#A97CF4"/><stop offset=".348" stop-color="#AA7BF4"/><stop offset=".352" stop-color="#AB7AF4"/><stop offset=".355" stop-color="#AC7AF4"/><stop offset=".359" stop-color="#AD79F4"/><stop offset=".363" stop-color="#AE78F4"/><stop offset=".367" stop-color="#AF77F4"/><stop offset=".371" stop-color="#B076F4"/><stop offset=".375" stop-color="#B175F4"/><stop offset=".379" stop-color="#B275F4"/><stop offset=".383" stop-color="#B374F4"/><stop offset=".387" stop-color="#B473F4"/><stop offset=".391" stop-color="#B572F4"/><stop offset=".395" stop-color="#B771F4"/><stop offset=".398" stop-color="#B870F3"/><stop offset=".402" stop-color="#B970F3"/><stop offset=".406" stop-color="#BA6FF3"/><stop offset=".41" stop-color="#BB6EF3"/><stop offset=".414" stop-color="#BC6DF3"/><stop offset=".418" stop-color="#BD6CF3"/><stop offset=".422" stop-color="#BE6CF3"/><stop offset=".426" stop-color="#BF6BF3"/><stop offset=".43" stop-color="#C06AF3"/><stop offset=".434" stop-color="#C169F3"/><stop offset=".438" stop-color="#C268F3"/><stop offset=".441" stop-color="#C368F3"/><stop offset=".445" stop-color="#C467F3"/><stop offset=".449" stop-color="#C566F3"/><stop offset=".453" stop-color="#C665F3"/><stop offset=".457" stop-color="#C764F3"/><stop offset=".461" stop-color="#C864F2"/><stop offset=".465" stop-color="#C963F2"/><stop offset=".469" stop-color="#CA62F2"/><stop offset=".473" stop-color="#CB61F2"/><stop offset=".477" stop-color="#CC61F2"/><stop offset=".48" stop-color="#CD60F2"/><stop offset=".484" stop-color="#CE5FF2"/><stop offset=".488" stop-color="#CF5EF2"/><stop offset=".492" stop-color="#D05EF2"/><stop offset=".496" stop-color="#D15DF2"/><stop offset=".5" stop-color="#D25CF2"/><stop offset=".504" stop-color="#D35BF2"/><stop offset=".508" stop-color="#D45BF2"/><stop offset=".512" stop-color="#D55AF2"/><stop offset=".516" stop-color="#D659F2"/><stop offset=".52" stop-color="#D758F2"/><stop offset=".523" stop-color="#D858F1"/><stop offset=".527" stop-color="#D957F1"/><stop offset=".531" stop-color="#DA56F1"/><stop offset=".535" stop-color="#DA55F1"/><stop offset=".539" stop-color="#DB55F1"/><stop offset=".543" stop-color="#DC54F1"/><stop offset=".547" stop-color="#DD53F1"/><stop offset=".551" stop-color="#DE52F1"/><stop offset=".555" stop-color="#DF52F1"/><stop offset=".559" stop-color="#E051F1"/><stop offset=".563" stop-color="#E150F1"/><stop offset=".566" stop-color="#E250F1"/><stop offset=".57" stop-color="#E34FF1"/><stop offset=".574" stop-color="#E44EF1"/><stop offset=".578" stop-color="#E54EF1"/><stop offset=".582" stop-color="#E54DF1"/><stop offset=".586" stop-color="#E64CF1"/><stop offset=".59" stop-color="#E74BF0"/><stop offset=".594" stop-color="#E84BF0"/><stop offset=".598" stop-color="#E94AF0"/><stop offset=".602" stop-color="#EA49F0"/><stop offset=".605" stop-color="#EB49F0"/><stop offset=".609" stop-color="#EC48F0"/><stop offset=".613" stop-color="#EC47F0"/><stop offset=".617" stop-color="#ED47F0"/><stop offset=".621" stop-color="#EE46F0"/><stop offset=".625" stop-color="#EF45F0"/><stop offset=".629" stop-color="#F045F0"/><stop offset=".633" stop-color="#F144F0"/><stop offset=".637" stop-color="#F144F0"/><stop offset=".641" stop-color="#F243F0"/><stop offset=".645" stop-color="#F342F0"/><stop offset=".648" stop-color="#F442F0"/><stop offset=".652" stop-color="#F441F0"/><stop offset=".656" stop-color="#F541F0"/><stop offset=".66" stop-color="#F640F0"/><stop offset=".664" stop-color="#F73FF0"/><stop offset=".668" stop-color="#F73FEF"/><stop offset=".672" stop-color="#F83EEF"/><stop offset=".676" stop-color="#F93EEF"/><stop offset=".68" stop-color="#FA3DEF"/><stop offset=".684" stop-color="#FA3DEF"/><stop offset=".688" stop-color="#FB3CEF"/><stop offset=".691" stop-color="#FC3CEF"/><stop offset=".695" stop-color="#FC3BEF"/><stop offset=".699" stop-color="#FD3BEF"/><stop offset=".703" stop-color="#FD3AEF"/><stop offset=".707" stop-color="#FE3AEF"/><stop offset=".711" stop-color="#FE39EF"/><stop offset=".719" stop-color="#FF39EF"/><stop offset=".75" stop-color="#FF39EF"/><stop offset="1" stop-color="#FF39EF"/></linearGradient><linearGradient id="h" x1="165.2" x2="137.832" y1="32.678" y2="67.737" gradientUnits="userSpaceOnUse"><stop stop-color="#8697F7"/><stop offset=".016" stop-color="#8697F7"/><stop offset=".031" stop-color="#8796F7"/><stop offset=".047" stop-color="#8895F6"/><stop offset=".063" stop-color="#8994F6"/><stop offset=".078" stop-color="#8A94F6"/><stop offset=".094" stop-color="#8B93F6"/><stop offset=".109" stop-color="#8C92F6"/><stop offset=".125" stop-color="#8D92F6"/><stop offset=".141" stop-color="#8E91F6"/><stop offset=".156" stop-color="#8F90F6"/><stop offset=".172" stop-color="#9090F6"/><stop offset=".188" stop-color="#908FF6"/><stop offset=".203" stop-color="#918EF6"/><stop offset=".219" stop-color="#928DF6"/><stop offset=".234" stop-color="#938DF6"/><stop offset=".25" stop-color="#948CF6"/><stop offset=".266" stop-color="#958BF6"/><stop offset=".281" stop-color="#968BF6"/><stop offset=".297" stop-color="#978AF6"/><stop offset=".313" stop-color="#9889F5"/><stop offset=".328" stop-color="#9989F5"/><stop offset=".344" stop-color="#9988F5"/><stop offset=".359" stop-color="#9A87F5"/><stop offset=".375" stop-color="#9B86F5"/><stop offset=".391" stop-color="#9C86F5"/><stop offset=".406" stop-color="#9D85F5"/><stop offset=".422" stop-color="#9E84F5"/><stop offset=".438" stop-color="#9F84F5"/><stop offset=".453" stop-color="#A083F5"/><stop offset=".469" stop-color="#A182F5"/><stop offset=".484" stop-color="#A182F5"/><stop offset=".5" stop-color="#A281F5"/><stop offset=".516" stop-color="#A380F5"/><stop offset=".531" stop-color="#A480F5"/><stop offset=".547" stop-color="#A57FF5"/><stop offset=".563" stop-color="#A67EF5"/><stop offset=".578" stop-color="#A77EF5"/><stop offset=".594" stop-color="#A87DF4"/><stop offset=".609" stop-color="#A87CF4"/><stop offset=".625" stop-color="#A97CF4"/><stop offset=".641" stop-color="#AA7BF4"/><stop offset=".656" stop-color="#AB7AF4"/><stop offset=".672" stop-color="#AC7AF4"/><stop offset=".688" stop-color="#AD79F4"/><stop offset=".703" stop-color="#AE78F4"/><stop offset=".719" stop-color="#AE78F4"/><stop offset=".734" stop-color="#AF77F4"/><stop offset=".75" stop-color="#B076F4"/><stop offset=".766" stop-color="#B176F4"/><stop offset=".781" stop-color="#B275F4"/><stop offset=".797" stop-color="#B374F4"/><stop offset=".813" stop-color="#B474F4"/><stop offset=".828" stop-color="#B473F4"/><stop offset=".844" stop-color="#B572F4"/><stop offset=".859" stop-color="#B672F4"/><stop offset=".875" stop-color="#B771F4"/><stop offset=".891" stop-color="#B870F3"/><stop offset=".906" stop-color="#B970F3"/><stop offset=".922" stop-color="#B96FF3"/><stop offset=".938" stop-color="#BA6EF3"/><stop offset=".953" stop-color="#BB6EF3"/><stop offset=".969" stop-color="#BC6DF3"/><stop offset=".984" stop-color="#BD6CF3"/><stop offset="1" stop-color="#BE6CF3"/></linearGradient><linearGradient id="k" x1="167.823" x2="136.547" y1="58.258" y2="98.324" gradientUnits="userSpaceOnUse"><stop stop-color="#9E84F5"/><stop offset=".008" stop-color="#9E84F5"/><stop offset=".016" stop-color="#9F84F5"/><stop offset=".023" stop-color="#9F83F5"/><stop offset=".031" stop-color="#A083F5"/><stop offset=".039" stop-color="#A083F5"/><stop offset=".047" stop-color="#A182F5"/><stop offset=".055" stop-color="#A182F5"/><stop offset=".063" stop-color="#A281F5"/><stop offset=".07" stop-color="#A281F5"/><stop offset=".078" stop-color="#A381F5"/><stop offset=".086" stop-color="#A380F5"/><stop offset=".094" stop-color="#A480F5"/><stop offset=".102" stop-color="#A47FF5"/><stop offset=".109" stop-color="#A57FF5"/><stop offset=".125" stop-color="#A67EF5"/><stop offset=".141" stop-color="#A77EF5"/><stop offset=".156" stop-color="#A87DF4"/><stop offset=".172" stop-color="#A97CF4"/><stop offset=".188" stop-color="#AA7BF4"/><stop offset=".203" stop-color="#AB7BF4"/><stop offset=".219" stop-color="#AC7AF4"/><stop offset=".234" stop-color="#AD79F4"/><stop offset=".25" stop-color="#AD78F4"/><stop offset=".266" stop-color="#AE78F4"/><stop offset=".281" stop-color="#AF77F4"/><stop offset=".297" stop-color="#B076F4"/><stop offset=".313" stop-color="#B175F4"/><stop offset=".328" stop-color="#B274F4"/><stop offset=".344" stop-color="#B374F4"/><stop offset=".359" stop-color="#B473F4"/><stop offset=".375" stop-color="#B572F4"/><stop offset=".391" stop-color="#B671F4"/><stop offset=".406" stop-color="#B771F3"/><stop offset=".422" stop-color="#B870F3"/><stop offset=".438" stop-color="#B96FF3"/><stop offset=".453" stop-color="#BA6EF3"/><stop offset=".469" stop-color="#BB6EF3"/><stop offset=".484" stop-color="#BC6DF3"/><stop offset=".5" stop-color="#BD6CF3"/><stop offset=".516" stop-color="#BE6CF3"/><stop offset=".531" stop-color="#BF6BF3"/><stop offset=".547" stop-color="#C06AF3"/><stop offset=".563" stop-color="#C169F3"/><stop offset=".578" stop-color="#C269F3"/><stop offset=".594" stop-color="#C368F3"/><stop offset=".609" stop-color="#C467F3"/><stop offset=".625" stop-color="#C566F3"/><stop offset=".641" stop-color="#C566F3"/><stop offset=".656" stop-color="#C665F3"/><stop offset=".672" stop-color="#C764F2"/><stop offset=".688" stop-color="#C864F2"/><stop offset=".703" stop-color="#C963F2"/><stop offset=".719" stop-color="#CA62F2"/><stop offset=".734" stop-color="#CB61F2"/><stop offset=".75" stop-color="#CC61F2"/><stop offset=".766" stop-color="#CD60F2"/><stop offset=".781" stop-color="#CE5FF2"/><stop offset=".797" stop-color="#CF5FF2"/><stop offset=".813" stop-color="#D05EF2"/><stop offset=".828" stop-color="#D05DF2"/><stop offset=".844" stop-color="#D15CF2"/><stop offset=".859" stop-color="#D25CF2"/><stop offset=".875" stop-color="#D35BF2"/><stop offset=".891" stop-color="#D45AF2"/><stop offset=".906" stop-color="#D55AF2"/><stop offset=".922" stop-color="#D659F2"/><stop offset=".938" stop-color="#D758F2"/><stop offset=".953" stop-color="#D858F1"/><stop offset=".969" stop-color="#D857F1"/><stop offset=".984" stop-color="#D956F1"/><stop offset="1" stop-color="#DA56F1"/></linearGradient><linearGradient id="n" x1="177.666" x2="155.368" y1="75.37" y2="103.935" gradientUnits="userSpaceOnUse"><stop stop-color="#A77DF4"/><stop offset=".016" stop-color="#A87DF4"/><stop offset=".031" stop-color="#A87CF4"/><stop offset=".047" stop-color="#A97CF4"/><stop offset=".063" stop-color="#AA7BF4"/><stop offset=".078" stop-color="#AB7BF4"/><stop offset=".094" stop-color="#AB7AF4"/><stop offset=".109" stop-color="#AC79F4"/><stop offset=".125" stop-color="#AD79F4"/><stop offset=".141" stop-color="#AD78F4"/><stop offset=".156" stop-color="#AE78F4"/><stop offset=".172" stop-color="#AF77F4"/><stop offset=".188" stop-color="#B077F4"/><stop offset=".203" stop-color="#B076F4"/><stop offset=".219" stop-color="#B176F4"/><stop offset=".234" stop-color="#B275F4"/><stop offset=".25" stop-color="#B275F4"/><stop offset=".266" stop-color="#B374F4"/><stop offset=".281" stop-color="#B473F4"/><stop offset=".297" stop-color="#B473F4"/><stop offset=".313" stop-color="#B572F4"/><stop offset=".328" stop-color="#B672F4"/><stop offset=".344" stop-color="#B671F4"/><stop offset=".359" stop-color="#B771F4"/><stop offset=".375" stop-color="#B870F3"/><stop offset=".391" stop-color="#B970F3"/><stop offset=".406" stop-color="#B96FF3"/><stop offset=".422" stop-color="#BA6FF3"/><stop offset=".438" stop-color="#BB6EF3"/><stop offset=".453" stop-color="#BB6EF3"/><stop offset=".469" stop-color="#BC6DF3"/><stop offset=".484" stop-color="#BD6DF3"/><stop offset=".5" stop-color="#BD6CF3"/><stop offset=".516" stop-color="#BE6BF3"/><stop offset=".531" stop-color="#BF6BF3"/><stop offset=".547" stop-color="#BF6AF3"/><stop offset=".563" stop-color="#C06AF3"/><stop offset=".578" stop-color="#C169F3"/><stop offset=".594" stop-color="#C169F3"/><stop offset=".609" stop-color="#C268F3"/><stop offset=".625" stop-color="#C368F3"/><stop offset=".641" stop-color="#C367F3"/><stop offset=".656" stop-color="#C467F3"/><stop offset=".672" stop-color="#C566F3"/><stop offset=".688" stop-color="#C566F3"/><stop offset=".703" stop-color="#C665F3"/><stop offset=".719" stop-color="#C765F3"/><stop offset=".734" stop-color="#C764F2"/><stop offset=".75" stop-color="#C864F2"/><stop offset=".766" stop-color="#C963F2"/><stop offset=".781" stop-color="#C963F2"/><stop offset=".797" stop-color="#CA62F2"/><stop offset=".813" stop-color="#CB62F2"/><stop offset=".828" stop-color="#CB61F2"/><stop offset=".844" stop-color="#CC61F2"/><stop offset=".859" stop-color="#CD60F2"/><stop offset=".875" stop-color="#CD60F2"/><stop offset=".891" stop-color="#CE5FF2"/><stop offset=".906" stop-color="#CE5FF2"/><stop offset=".922" stop-color="#CF5EF2"/><stop offset=".938" stop-color="#D05EF2"/><stop offset=".953" stop-color="#D05DF2"/><stop offset=".969" stop-color="#D15DF2"/><stop offset=".984" stop-color="#D25CF2"/><stop offset="1" stop-color="#D25CF2"/></linearGradient><linearGradient id="q" x1="179.151" x2="156.852" y1="21.734" y2="50.3" gradientUnits="userSpaceOnUse"><stop stop-color="#6FA9F8"/><stop offset=".016" stop-color="#6FA9F8"/><stop offset=".031" stop-color="#70A8F8"/><stop offset=".047" stop-color="#71A7F8"/><stop offset=".063" stop-color="#72A7F8"/><stop offset=".078" stop-color="#72A6F8"/><stop offset=".094" stop-color="#73A6F8"/><stop offset=".109" stop-color="#74A5F8"/><stop offset=".125" stop-color="#75A4F8"/><stop offset=".141" stop-color="#75A4F8"/><stop offset=".156" stop-color="#76A3F8"/><stop offset=".172" stop-color="#77A3F8"/><stop offset=".188" stop-color="#78A2F7"/><stop offset=".203" stop-color="#78A1F7"/><stop offset=".219" stop-color="#79A1F7"/><stop offset=".234" stop-color="#7AA0F7"/><stop offset=".25" stop-color="#7BA0F7"/><stop offset=".266" stop-color="#7C9FF7"/><stop offset=".281" stop-color="#7C9EF7"/><stop offset=".297" stop-color="#7D9EF7"/><stop offset=".313" stop-color="#7E9DF7"/><stop offset=".328" stop-color="#7F9DF7"/><stop offset=".344" stop-color="#7F9CF7"/><stop offset=".359" stop-color="#809CF7"/><stop offset=".375" stop-color="#819BF7"/><stop offset=".391" stop-color="#829AF7"/><stop offset=".406" stop-color="#829AF7"/><stop offset=".422" stop-color="#8399F7"/><stop offset=".438" stop-color="#8499F7"/><stop offset=".453" stop-color="#8598F7"/><stop offset=".469" stop-color="#8597F7"/><stop offset=".484" stop-color="#8697F7"/><stop offset=".5" stop-color="#8796F7"/><stop offset=".516" stop-color="#8896F6"/><stop offset=".531" stop-color="#8895F6"/><stop offset=".547" stop-color="#8995F6"/><stop offset=".563" stop-color="#8A94F6"/><stop offset=".578" stop-color="#8B93F6"/><stop offset=".594" stop-color="#8B93F6"/><stop offset=".609" stop-color="#8C92F6"/><stop offset=".625" stop-color="#8D92F6"/><stop offset=".641" stop-color="#8D91F6"/><stop offset=".656" stop-color="#8E91F6"/><stop offset=".672" stop-color="#8F90F6"/><stop offset=".688" stop-color="#908FF6"/><stop offset=".703" stop-color="#908FF6"/><stop offset=".719" stop-color="#918EF6"/><stop offset=".734" stop-color="#928EF6"/><stop offset=".75" stop-color="#938DF6"/><stop offset=".766" stop-color="#938DF6"/><stop offset=".781" stop-color="#948CF6"/><stop offset=".797" stop-color="#958BF6"/><stop offset=".813" stop-color="#968BF6"/><stop offset=".828" stop-color="#968AF6"/><stop offset=".844" stop-color="#978AF6"/><stop offset=".859" stop-color="#9889F5"/><stop offset=".875" stop-color="#9889F5"/><stop offset=".891" stop-color="#9988F5"/><stop offset=".906" stop-color="#9A87F5"/><stop offset=".922" stop-color="#9B87F5"/><stop offset=".938" stop-color="#9B86F5"/><stop offset=".953" stop-color="#9C86F5"/><stop offset=".969" stop-color="#9D85F5"/><stop offset=".984" stop-color="#9E85F5"/><stop offset="1" stop-color="#9E84F5"/></linearGradient><linearGradient id="t" x1="148.87" x2="126.587" y1="48.082" y2="76.627" gradientUnits="userSpaceOnUse"><stop stop-color="#A381F5"/><stop offset=".016" stop-color="#A380F5"/><stop offset=".031" stop-color="#A480F5"/><stop offset=".047" stop-color="#A47FF5"/><stop offset=".063" stop-color="#A57FF5"/><stop offset=".078" stop-color="#A67EF5"/><stop offset=".094" stop-color="#A77EF5"/><stop offset=".109" stop-color="#A77DF5"/><stop offset=".125" stop-color="#A87DF4"/><stop offset=".141" stop-color="#A97CF4"/><stop offset=".156" stop-color="#A97BF4"/><stop offset=".172" stop-color="#AA7BF4"/><stop offset=".188" stop-color="#AB7AF4"/><stop offset=".203" stop-color="#AC7AF4"/><stop offset=".219" stop-color="#AC79F4"/><stop offset=".234" stop-color="#AD79F4"/><stop offset=".25" stop-color="#AE78F4"/><stop offset=".266" stop-color="#AE78F4"/><stop offset=".281" stop-color="#AF77F4"/><stop offset=".297" stop-color="#B077F4"/><stop offset=".313" stop-color="#B076F4"/><stop offset=".328" stop-color="#B175F4"/><stop offset=".344" stop-color="#B275F4"/><stop offset=".359" stop-color="#B374F4"/><stop offset=".375" stop-color="#B374F4"/><stop offset=".391" stop-color="#B473F4"/><stop offset=".406" stop-color="#B573F4"/><stop offset=".422" stop-color="#B572F4"/><stop offset=".438" stop-color="#B672F4"/><stop offset=".453" stop-color="#B771F4"/><stop offset=".469" stop-color="#B771F3"/><stop offset=".484" stop-color="#B870F3"/><stop offset=".5" stop-color="#B970F3"/><stop offset=".516" stop-color="#B96FF3"/><stop offset=".531" stop-color="#BA6FF3"/><stop offset=".547" stop-color="#BB6EF3"/><stop offset=".563" stop-color="#BB6DF3"/><stop offset=".578" stop-color="#BC6DF3"/><stop offset=".594" stop-color="#BD6CF3"/><stop offset=".609" stop-color="#BD6CF3"/><stop offset=".625" stop-color="#BE6BF3"/><stop offset=".641" stop-color="#BF6BF3"/><stop offset=".656" stop-color="#BF6AF3"/><stop offset=".672" stop-color="#C06AF3"/><stop offset=".688" stop-color="#C169F3"/><stop offset=".703" stop-color="#C269F3"/><stop offset=".719" stop-color="#C268F3"/><stop offset=".734" stop-color="#C368F3"/><stop offset=".75" stop-color="#C467F3"/><stop offset=".766" stop-color="#C467F3"/><stop offset=".781" stop-color="#C566F3"/><stop offset=".797" stop-color="#C666F3"/><stop offset=".813" stop-color="#C665F3"/><stop offset=".828" stop-color="#C765F3"/><stop offset=".844" stop-color="#C764F2"/><stop offset=".859" stop-color="#C864F2"/><stop offset=".875" stop-color="#C963F2"/><stop offset=".891" stop-color="#C963F2"/><stop offset=".906" stop-color="#CA62F2"/><stop offset=".922" stop-color="#CB62F2"/><stop offset=".938" stop-color="#CB61F2"/><stop offset=".953" stop-color="#CC61F2"/><stop offset=".969" stop-color="#CD60F2"/><stop offset=".984" stop-color="#CD60F2"/><stop offset="1" stop-color="#CE5FF2"/></linearGradient></defs></svg>