<svg xmlns="http://www.w3.org/2000/svg" width="526" height="117" fill="none"><mask id="a" width="101" height="116" x="0" y="1" maskUnits="userSpaceOnUse" style="mask-type:luminance"><path fill="#fff" d="M0 1h100.144v116H0V1Z"/></mask><g mask="url(#a)"><mask id="b" width="101" height="116" x="0" y="1" maskUnits="userSpaceOnUse" style="mask-type:luminance"><path fill="#fff" d="M42.49 58.876 100.076 1.29h-42.46L.032 58.876l57.582 57.58h42.457L42.49 58.876Z"/></mask><g mask="url(#b)"><path fill="url(#c)" d="M145.77 23.832 19.615-38.402-45.661 93.913l126.154 62.238L145.77 23.832Z"/></g></g><mask id="d" width="28" height="29" x="0" y="88" maskUnits="userSpaceOnUse" style="mask-type:luminance"><path fill="#fff" d="M0 88.626h27.54V117H0V88.626Z"/></mask><g mask="url(#d)"><mask id="e" width="28" height="28" x="0" y="89" maskUnits="userSpaceOnUse" style="mask-type:luminance"><path fill="#fff" d="M27.429 116.456.033 89.059v27.397h27.396Z"/></mask><g mask="url(#e)"><path fill="#FF39EF" d="M38.3 94.422 5.395 78.191l-16.234 32.902 32.905 16.234 16.235-32.905Z"/></g></g><mask id="f" width="36" height="31" x="75" y="36" maskUnits="userSpaceOnUse" style="mask-type:luminance"><path fill="#fff" d="M75.108 36.05h35.05v30.044h-35.05V36.05Z"/></mask><g mask="url(#f)"><mask id="g" width="36" height="30" x="75" y="36" maskUnits="userSpaceOnUse" style="mask-type:luminance"><path fill="#fff" d="m75.515 54.006 13.796 11.823c-3.478-12.403 20.694-19.709 20.694-19.709l-12.811-9.362c-2.256 14.894-16.932 14.835-21.679 17.248Z"/></mask><g mask="url(#g)"><path fill="url(#h)" d="M124.107 47.766 88.575 20.028 61.413 54.824l35.533 27.739 27.161-34.797Z"/></g></g><mask id="i" width="36" height="39" x="75" y="59" maskUnits="userSpaceOnUse" style="mask-type:luminance"><path fill="#fff" d="M75.108 59.417h35.05v38.389h-35.05V59.417Z"/></mask><g mask="url(#i)"><mask id="j" width="35" height="39" x="75" y="59" maskUnits="userSpaceOnUse" style="mask-type:luminance"><path fill="#fff" d="M75.516 73.715c-.115.111-.15 1.024 0 .985 14.265-3.801 23.77 22.366 23.77 22.366l10.468-12.887c-18.187-3.582-21.923-24.263-21.923-24.263l-12.316 13.8Z"/></mask><g mask="url(#j)"><path fill="url(#k)" d="M127.771 73.983 88.385 43.234 57.345 83l39.389 30.748 31.037-39.764Z"/></g></g><mask id="l" width="28" height="27" x="93" y="76" maskUnits="userSpaceOnUse" style="mask-type:luminance"><path fill="#fff" d="M93.468 76.942h26.705v25.871H93.468v-25.87Z"/></mask><g mask="url(#l)"><mask id="m" width="26" height="26" x="94" y="77" maskUnits="userSpaceOnUse" style="mask-type:luminance"><path fill="#fff" d="M94.24 89.975c0 7.075 5.735 12.812 12.809 12.812 7.077 0 12.814-5.738 12.814-12.812 0-7.077-5.737-12.81-12.814-12.81-7.074 0-12.808 5.733-12.808 12.81Z"/></mask><g mask="url(#m)"><path fill="url(#n)" d="m132.29 86.865-28.348-22.13-22.131 28.35 28.348 22.129 22.131-28.349Z"/></g></g><mask id="o" width="27" height="28" x="95" y="23" maskUnits="userSpaceOnUse" style="mask-type:luminance"><path fill="#fff" d="M95.137 23.532h26.705v26.705H95.137V23.532Z"/></mask><g mask="url(#o)"><mask id="p" width="27" height="27" x="95" y="23" maskUnits="userSpaceOnUse" style="mask-type:luminance"><path fill="#fff" d="M95.71 36.745c0 7.074 5.738 12.811 12.815 12.811 7.074 0 12.811-5.737 12.811-12.811s-5.737-12.812-12.811-12.812c-7.077 0-12.815 5.738-12.815 12.812Z"/></mask><g mask="url(#p)"><path fill="url(#q)" d="m133.763 33.635-28.348-22.132-22.131 28.352 28.348 22.131 22.131-28.351Z"/></g></g><mask id="r" width="27" height="28" x="65" y="49" maskUnits="userSpaceOnUse" style="mask-type:luminance"><path fill="#fff" d="M65.094 49.403h26.705v26.705H65.093V49.403Z"/></mask><g mask="url(#r)"><mask id="s" width="27" height="26" x="65" y="50" maskUnits="userSpaceOnUse" style="mask-type:luminance"><path fill="#fff" d="M65.677 62.883c0 7.07 5.73 12.801 12.802 12.801 7.07 0 12.805-5.73 12.805-12.801S85.549 50.08 78.478 50.08c-7.071 0-12.802 5.73-12.802 12.801Z"/></mask><g mask="url(#s)"><path fill="url(#t)" d="M103.7 59.776 75.372 37.66 53.257 65.989l28.332 22.115L103.7 59.776Z"/></g></g><path fill="#002C48" d="M145 94.292v10.229c0 5.375 2.583 7.479 5.792 7.479 3.375 0 6.062-2.25 6.062-7.583V94.208h-2.375v10.354c0 3.855-1.312 5.48-3.625 5.48-2.083 0-3.479-1.584-3.479-5.48V94.208H145v.084ZM167.081 111.708h2.209v-7.541c0-.396.041-.792.146-1.063.333-1.271 1.229-2.271 2.562-2.271 1.938 0 2.417 1.625 2.417 3.625v7.25h2.396v-7.5c0-4.27-2.584-5.375-4.146-5.375-1.854 0-3.292 1.167-3.813 2.334h.229l-.125-2.063h-2.145a59.91 59.91 0 0 1 .083 3.458v9.146h.187ZM186.905 111.708h2.208V93.292h-2.395v18.416h.187ZM208.52 105.833c.021-.229.062-.583.062-1.062 0-2.292-1.125-5.938-4.791-5.938-3.271 0-5.459 3.021-5.459 6.792s2.25 6.333 5.709 6.333c1.791 0 3.02-.396 3.895-.833l-.395-1.729c-.875.396-1.75.687-3.209.687-2.041 0-3.646-1.187-3.687-4.208h7.854l.021-.042Zm-7.854-1.625c.145-1.562.895-3.625 2.958-3.625 2.292 0 2.667 2.188 2.646 3.542h-5.604v.083ZM226.133 111.667c-.125-.855-.188-1.917-.188-3V104c0-2.5-.979-5.167-4.416-5.167-1.417 0-2.896.459-3.875 1.146l.541 1.729c1.021-.729 1.979-1.083 3.021-1.083 2.313 0 2.375 1.812 2.375 2.833v.188c-4.146-.021-6.75 1.687-6.75 4.708 0 1.813 1.354 3.646 3.625 3.646 1.583 0 2.917-.875 3.521-1.854h-.188l.167 1.562h2.167v-.041Zm-2.5-4.209c0 .229-.042.479-.104.729-.334 1.042-1.084 2-2.542 2-1.042 0-1.75-.625-1.75-2.083 0-2.417 2.354-2.812 4.396-2.771v2.125ZM235.118 111.125c.792.5 2.063.833 3.292.833 2.666 0 4.354-1.583 4.354-3.771 0-1.875-1.167-3.02-3.104-3.854-1.459-.604-1.979-1-1.979-2.041 0-.917.52-1.646 1.729-1.646 1.041 0 1.708.416 2.375.875l.583-1.875c-.667-.438-1.792-.813-2.917-.813-2.416 0-4.062 1.709-4.062 3.729 0 1.5 1.146 2.771 3.146 3.584 1.521.604 1.916 1.146 1.916 2.229 0 1.042-.52 1.792-2 1.792-1.02 0-1.979-.438-2.812-1.042l-.563 1.937.042.063ZM252.172 111.708h2.208v-7.583c0-.438.021-.771.146-1.083.354-1.23 1.25-2.209 2.562-2.209 1.938 0 2.417 1.646 2.417 3.667v7.208h2.396v-7.479c0-4.291-2.584-5.396-4.084-5.396-.77 0-1.625.271-2.229.667-.625.375-1.146.937-1.437 1.562h.229v-7.77h-2.396v18.416h.188ZM284.158 96.188v2.916h-1.75v1.854h1.75v6.75c0 1.479.25 2.625.833 3.313.479.604 1.375.937 2.333.937.792 0 1.417-.125 1.98-.354l-.125-1.833a4.132 4.132 0 0 1-1.313.208c-1.146 0-1.375-.792-1.375-2.333v-6.688h2.917v-1.854h-2.917V95.48l-2.333.688v.02ZM298.496 111.708h2.208v-7.583c0-.438.021-.771.146-1.083.354-1.23 1.25-2.209 2.563-2.209 1.937 0 2.416 1.646 2.416 3.667v7.208h2.396v-7.479c0-4.291-2.583-5.396-4.083-5.396-.771 0-1.625.271-2.229.667-.625.375-1.146.937-1.438 1.562h.229v-7.77h-2.396v18.416h.188ZM327.507 105.833c.021-.229.062-.583.062-1.062 0-2.292-1.125-5.938-4.791-5.938-3.271 0-5.459 3.021-5.459 6.792s2.25 6.333 5.709 6.333c1.791 0 3.021-.396 3.896-.833l-.396-1.729c-.875.396-1.75.687-3.209.687-2.041 0-3.645-1.187-3.687-4.208h7.854l.021-.042Zm-7.854-1.625c.146-1.562.896-3.625 2.958-3.625 2.292 0 2.667 2.188 2.646 3.542h-5.604v.083ZM348.762 116.812h2.187v-6.77h-.229c.646 1.229 2.083 1.958 3.563 1.958 2.645 0 5.27-2.271 5.27-6.75 0-3.792-2.208-6.417-4.916-6.417-1.834 0-3.292.917-4.104 2.417h.229l-.084-2.146h-2.187c.042 1.271.083 2.563.083 4.146v13.562h.188Zm2.187-12.375c0-.312.063-.645.146-.916.375-1.709 1.521-2.771 2.917-2.771 2.146 0 3.146 2.083 3.146 4.583 0 2.875-1.063 4.75-3.23 4.75-1.458 0-2.52-1-2.895-2.583a5.937 5.937 0 0 1-.084-.917v-2.146ZM373.66 98.833c-3.104 0-5.75 2.521-5.75 6.688 0 3.937 2.541 6.479 5.583 6.479 2.708 0 5.75-2.063 5.75-6.688 0-3.812-2.354-6.479-5.583-6.479Zm-.042 1.813c2.417 0 3.188 2.646 3.188 4.75 0 2.812-1.292 4.771-3.23 4.771-2 0-3.25-1.98-3.25-4.73 0-2.354.875-4.791 3.292-4.791ZM386.973 99.188l3.417 12.52h2.146l1.833-5.979c.396-1.333.75-2.625 1-4.062h-.25c.25 1.416.584 2.645.979 4.041l1.73 6h2.166l3.646-12.604h-2.354l-1.625 6.333c-.375 1.48-.667 2.792-.833 3.98h.229c-.229-1.188-.563-2.5-.979-4l-1.75-6.313h-2.021l-1.854 6.438c-.375 1.354-.75 2.687-.98 3.875h.23c-.188-1.209-.48-2.5-.813-3.896l-1.5-6.417h-2.417v.084ZM421.407 105.833c.021-.229.063-.583.063-1.062 0-2.292-1.125-5.938-4.792-5.938-3.271 0-5.458 3.021-5.458 6.792s2.25 6.333 5.708 6.333c1.792 0 3.021-.396 3.896-.833l-.396-1.729c-.875.396-1.75.687-3.208.687-2.042 0-3.646-1.187-3.688-4.208h7.855l.02-.042Zm-7.854-1.625c.146-1.562.896-3.625 2.959-3.625 2.291 0 2.666 2.188 2.645 3.542h-5.604v.083ZM430.792 111.708h2.187V105c0-.375.042-.729.083-1.042.292-1.708 1.146-2.875 2.584-2.875.271 0 .479.042.854.146v-2.27c-.354-.105-.5-.126-.75-.126-1.354 0-2.771 1.125-3.271 2.729h.25l-.083-2.458h-2.125c.062 1.229.083 2.5.083 3.979v8.625h.188ZM461.949 98.833c-3.104 0-5.75 2.521-5.75 6.688 0 3.937 2.542 6.479 5.584 6.479 2.708 0 5.75-2.063 5.75-6.688 0-3.812-2.354-6.479-5.584-6.479Zm-.041 1.813c2.416 0 3.187 2.646 3.187 4.75 0 2.812-1.291 4.771-3.229 4.771-2 0-3.25-1.98-3.25-4.73 0-2.354.875-4.791 3.292-4.791ZM479.28 111.667v-10.709h2.708v-1.854h-2.708v-.583c0-1.917.27-3.563 2.02-3.563.584 0 1 .125 1.438.355l.292-1.876c-.563-.25-1.188-.437-1.896-.437-.959 0-2.104.354-2.875 1.188-.959 1-1.354 2.645-1.354 4.395v.521h-1.563v1.854h1.563v10.75h2.375v-.041ZM510.439 106.187l1.687 5.521h2.5l-5.375-17.5h-2.729l-5.354 17.5h2.437l1.625-5.458h5.23l-.021-.063Zm-4.771-1.75 1.521-5.02c.312-1.063.562-2.105.771-3.084h-.25c.208.938.437 1.98.791 3.105l1.5 4.916h-4.312l-.021.083ZM523.521 94.292v17.416h2.354v-17.5h-2.354v.084ZM160 38.805l-3.542 5.792-.02 19.5-11.438-.02.083-63.46 11.438.022-.042 27.646L171.5.66h11.438l-15.959 28.27 15.875 35.188h-11.75L160 38.805ZM228.986 49.583c0 2.308.531 3.933 1.604 4.875 1.068.933 2.5 1.396 4.292 1.396 1.802 0 3.25-.463 4.333-1.396 1.083-.927 1.625-2.547 1.625-4.854l.042-34.27c0-2.292-.542-3.907-1.625-4.855-1.073-.943-2.511-1.416-4.313-1.416-1.791 0-3.229.473-4.312 1.416-1.073.933-1.604 2.542-1.604 4.834l-.042 34.27ZM217.59 15.938c0-5.136 1.49-9.073 4.479-11.813C225.054 1.375 229.351 0 234.965 0c5.625.016 9.922 1.396 12.896 4.146 2.969 2.75 4.458 6.698 4.458 11.833l-.041 33c-.016 5.14-1.516 9.084-4.5 11.834-2.974 2.75-7.271 4.114-12.896 4.104-5.615 0-9.912-1.375-12.896-4.125-2.974-2.76-4.453-6.714-4.438-11.855l.042-33ZM307.975 28.922l16.021.021-.021 20.125c-.016 5.14-1.458 9.084-4.333 11.834s-7.125 4.114-12.75 4.104c-5.615 0-9.855-1.375-12.73-4.125-2.875-2.76-4.307-6.714-4.291-11.855l.041-33c0-5.135 1.438-9.072 4.313-11.812 2.885-2.75 7.135-4.125 12.75-4.125 5.625.016 9.864 1.396 12.729 4.146 2.875 2.75 4.313 6.698 4.313 11.833l-.021 6.167h-10.813l.021-6.813c0-2.291-.542-3.906-1.625-4.854-1.073-.943-2.51-1.417-4.312-1.417-1.792 0-3.23.474-4.313 1.417-1.073.932-1.604 2.542-1.604 4.834l-.042 34.27c0 2.308.531 3.912 1.604 4.813 1.068.906 2.5 1.354 4.292 1.354 1.802 0 3.25-.443 4.333-1.333 1.084-.901 1.625-2.505 1.625-4.813l.021-11.687-5.208-.021v-9.063ZM372.736 18.406l-.062 45.959-10.292-.021.083-63.458 14.354.02 11.688 38 .062-37.979h10.188l-.083 63.459h-11.75l-14.188-45.98ZM438.113.979l11.437.02-.083 63.459-11.437-.021.083-63.458ZM525.967 64.541h-11.542l-1.958-11.52-14.042-.022-2 11.521-10.5-.02 11.729-63.438 16.75.02 11.563 63.46Zm-26.083-20.146 11.02.021-5.479-32.125-5.541 32.104Z"/><defs><linearGradient id="c" x1="94.115" x2="28.839" y1="-1.649" y2="130.668" gradientUnits="userSpaceOnUse"><stop stop-color="#43CBFB"/><stop offset=".004" stop-color="#44CAFB"/><stop offset=".008" stop-color="#45C9FB"/><stop offset=".012" stop-color="#47C8FB"/><stop offset=".016" stop-color="#48C7FA"/><stop offset=".02" stop-color="#49C6FA"/><stop offset=".023" stop-color="#4AC5FA"/><stop offset=".027" stop-color="#4BC4FA"/><stop offset=".031" stop-color="#4DC4FA"/><stop offset=".035" stop-color="#4EC3FA"/><stop offset=".039" stop-color="#4FC2FA"/><stop offset=".043" stop-color="#50C1FA"/><stop offset=".047" stop-color="#51C0FA"/><stop offset=".051" stop-color="#53BFFA"/><stop offset=".055" stop-color="#54BEFA"/><stop offset=".059" stop-color="#55BDFA"/><stop offset=".063" stop-color="#56BCFA"/><stop offset=".066" stop-color="#57BBFA"/><stop offset=".07" stop-color="#59BAF9"/><stop offset=".074" stop-color="#5AB9F9"/><stop offset=".078" stop-color="#5BB8F9"/><stop offset=".082" stop-color="#5CB7F9"/><stop offset=".086" stop-color="#5DB6F9"/><stop offset=".09" stop-color="#5FB6F9"/><stop offset=".094" stop-color="#60B5F9"/><stop offset=".098" stop-color="#61B4F9"/><stop offset=".102" stop-color="#62B3F9"/><stop offset=".105" stop-color="#63B2F9"/><stop offset=".109" stop-color="#65B1F9"/><stop offset=".113" stop-color="#66B0F9"/><stop offset=".117" stop-color="#67AFF9"/><stop offset=".121" stop-color="#68AEF8"/><stop offset=".125" stop-color="#69ADF8"/><stop offset=".129" stop-color="#6AACF8"/><stop offset=".133" stop-color="#6CABF8"/><stop offset=".137" stop-color="#6DAAF8"/><stop offset=".141" stop-color="#6EAAF8"/><stop offset=".145" stop-color="#6FA9F8"/><stop offset=".148" stop-color="#70A8F8"/><stop offset=".152" stop-color="#72A7F8"/><stop offset=".156" stop-color="#73A6F8"/><stop offset=".16" stop-color="#74A5F8"/><stop offset=".164" stop-color="#75A4F8"/><stop offset=".168" stop-color="#76A3F8"/><stop offset=".172" stop-color="#77A2F8"/><stop offset=".176" stop-color="#78A1F7"/><stop offset=".18" stop-color="#7AA1F7"/><stop offset=".184" stop-color="#7BA0F7"/><stop offset=".188" stop-color="#7C9FF7"/><stop offset=".191" stop-color="#7D9EF7"/><stop offset=".195" stop-color="#7E9DF7"/><stop offset=".199" stop-color="#7F9CF7"/><stop offset=".203" stop-color="#819BF7"/><stop offset=".207" stop-color="#829AF7"/><stop offset=".211" stop-color="#8399F7"/><stop offset=".215" stop-color="#8499F7"/><stop offset=".219" stop-color="#8598F7"/><stop offset=".223" stop-color="#8697F7"/><stop offset=".227" stop-color="#8796F7"/><stop offset=".23" stop-color="#8995F6"/><stop offset=".234" stop-color="#8A94F6"/><stop offset=".238" stop-color="#8B93F6"/><stop offset=".242" stop-color="#8C92F6"/><stop offset=".246" stop-color="#8D91F6"/><stop offset=".25" stop-color="#8E91F6"/><stop offset=".254" stop-color="#8F90F6"/><stop offset=".258" stop-color="#908FF6"/><stop offset=".262" stop-color="#928EF6"/><stop offset=".266" stop-color="#938DF6"/><stop offset=".27" stop-color="#948CF6"/><stop offset=".273" stop-color="#958BF6"/><stop offset=".277" stop-color="#968AF6"/><stop offset=".281" stop-color="#978AF6"/><stop offset=".285" stop-color="#9889F5"/><stop offset=".289" stop-color="#9988F5"/><stop offset=".293" stop-color="#9A87F5"/><stop offset=".297" stop-color="#9C86F5"/><stop offset=".301" stop-color="#9D85F5"/><stop offset=".305" stop-color="#9E84F5"/><stop offset=".309" stop-color="#9F84F5"/><stop offset=".313" stop-color="#A083F5"/><stop offset=".316" stop-color="#A182F5"/><stop offset=".32" stop-color="#A281F5"/><stop offset=".324" stop-color="#A380F5"/><stop offset=".328" stop-color="#A47FF5"/><stop offset=".332" stop-color="#A57FF5"/><stop offset=".336" stop-color="#A77EF5"/><stop offset=".34" stop-color="#A87DF4"/><stop offset=".344" stop-color="#A97CF4"/><stop offset=".348" stop-color="#AA7BF4"/><stop offset=".352" stop-color="#AB7AF4"/><stop offset=".355" stop-color="#AC7AF4"/><stop offset=".359" stop-color="#AD79F4"/><stop offset=".363" stop-color="#AE78F4"/><stop offset=".367" stop-color="#AF77F4"/><stop offset=".371" stop-color="#B076F4"/><stop offset=".375" stop-color="#B175F4"/><stop offset=".379" stop-color="#B275F4"/><stop offset=".383" stop-color="#B374F4"/><stop offset=".387" stop-color="#B473F4"/><stop offset=".391" stop-color="#B572F4"/><stop offset=".395" stop-color="#B771F4"/><stop offset=".398" stop-color="#B870F3"/><stop offset=".402" stop-color="#B970F3"/><stop offset=".406" stop-color="#BA6FF3"/><stop offset=".41" stop-color="#BB6EF3"/><stop offset=".414" stop-color="#BC6DF3"/><stop offset=".418" stop-color="#BD6CF3"/><stop offset=".422" stop-color="#BE6CF3"/><stop offset=".426" stop-color="#BF6BF3"/><stop offset=".43" stop-color="#C06AF3"/><stop offset=".434" stop-color="#C169F3"/><stop offset=".438" stop-color="#C268F3"/><stop offset=".441" stop-color="#C368F3"/><stop offset=".445" stop-color="#C467F3"/><stop offset=".449" stop-color="#C566F3"/><stop offset=".453" stop-color="#C665F3"/><stop offset=".457" stop-color="#C764F3"/><stop offset=".461" stop-color="#C864F2"/><stop offset=".465" stop-color="#C963F2"/><stop offset=".469" stop-color="#CA62F2"/><stop offset=".473" stop-color="#CB61F2"/><stop offset=".477" stop-color="#CC61F2"/><stop offset=".48" stop-color="#CD60F2"/><stop offset=".484" stop-color="#CE5FF2"/><stop offset=".488" stop-color="#CF5EF2"/><stop offset=".492" stop-color="#D05EF2"/><stop offset=".496" stop-color="#D15DF2"/><stop offset=".5" stop-color="#D25CF2"/><stop offset=".504" stop-color="#D35BF2"/><stop offset=".508" stop-color="#D45BF2"/><stop offset=".512" stop-color="#D55AF2"/><stop offset=".516" stop-color="#D659F2"/><stop offset=".52" stop-color="#D758F2"/><stop offset=".523" stop-color="#D858F1"/><stop offset=".527" stop-color="#D957F1"/><stop offset=".531" stop-color="#DA56F1"/><stop offset=".535" stop-color="#DA55F1"/><stop offset=".539" stop-color="#DB55F1"/><stop offset=".543" stop-color="#DC54F1"/><stop offset=".547" stop-color="#DD53F1"/><stop offset=".551" stop-color="#DE52F1"/><stop offset=".555" stop-color="#DF52F1"/><stop offset=".559" stop-color="#E051F1"/><stop offset=".563" stop-color="#E150F1"/><stop offset=".566" stop-color="#E250F1"/><stop offset=".57" stop-color="#E34FF1"/><stop offset=".574" stop-color="#E44EF1"/><stop offset=".578" stop-color="#E54EF1"/><stop offset=".582" stop-color="#E54DF1"/><stop offset=".586" stop-color="#E64CF1"/><stop offset=".59" stop-color="#E74BF0"/><stop offset=".594" stop-color="#E84BF0"/><stop offset=".598" stop-color="#E94AF0"/><stop offset=".602" stop-color="#EA49F0"/><stop offset=".605" stop-color="#EB49F0"/><stop offset=".609" stop-color="#EC48F0"/><stop offset=".613" stop-color="#EC47F0"/><stop offset=".617" stop-color="#ED47F0"/><stop offset=".621" stop-color="#EE46F0"/><stop offset=".625" stop-color="#EF45F0"/><stop offset=".629" stop-color="#F045F0"/><stop offset=".633" stop-color="#F144F0"/><stop offset=".637" stop-color="#F144F0"/><stop offset=".641" stop-color="#F243F0"/><stop offset=".645" stop-color="#F342F0"/><stop offset=".648" stop-color="#F442F0"/><stop offset=".652" stop-color="#F441F0"/><stop offset=".656" stop-color="#F541F0"/><stop offset=".66" stop-color="#F640F0"/><stop offset=".664" stop-color="#F73FF0"/><stop offset=".668" stop-color="#F73FEF"/><stop offset=".672" stop-color="#F83EEF"/><stop offset=".676" stop-color="#F93EEF"/><stop offset=".68" stop-color="#FA3DEF"/><stop offset=".684" stop-color="#FA3DEF"/><stop offset=".688" stop-color="#FB3CEF"/><stop offset=".691" stop-color="#FC3CEF"/><stop offset=".695" stop-color="#FC3BEF"/><stop offset=".699" stop-color="#FD3BEF"/><stop offset=".703" stop-color="#FD3AEF"/><stop offset=".707" stop-color="#FE3AEF"/><stop offset=".711" stop-color="#FE39EF"/><stop offset=".719" stop-color="#FF39EF"/><stop offset=".75" stop-color="#FF39EF"/><stop offset="1" stop-color="#FF39EF"/></linearGradient><linearGradient id="h" x1="105.743" x2="78.582" y1="33.431" y2="68.225" gradientUnits="userSpaceOnUse"><stop stop-color="#8697F7"/><stop offset=".016" stop-color="#8697F7"/><stop offset=".031" stop-color="#8796F7"/><stop offset=".047" stop-color="#8895F6"/><stop offset=".063" stop-color="#8994F6"/><stop offset=".078" stop-color="#8A94F6"/><stop offset=".094" stop-color="#8B93F6"/><stop offset=".109" stop-color="#8C92F6"/><stop offset=".125" stop-color="#8D92F6"/><stop offset=".141" stop-color="#8E91F6"/><stop offset=".156" stop-color="#8F90F6"/><stop offset=".172" stop-color="#9090F6"/><stop offset=".188" stop-color="#908FF6"/><stop offset=".203" stop-color="#918EF6"/><stop offset=".219" stop-color="#928DF6"/><stop offset=".234" stop-color="#938DF6"/><stop offset=".25" stop-color="#948CF6"/><stop offset=".266" stop-color="#958BF6"/><stop offset=".281" stop-color="#968BF6"/><stop offset=".297" stop-color="#978AF6"/><stop offset=".313" stop-color="#9889F5"/><stop offset=".328" stop-color="#9989F5"/><stop offset=".344" stop-color="#9988F5"/><stop offset=".359" stop-color="#9A87F5"/><stop offset=".375" stop-color="#9B86F5"/><stop offset=".391" stop-color="#9C86F5"/><stop offset=".406" stop-color="#9D85F5"/><stop offset=".422" stop-color="#9E84F5"/><stop offset=".438" stop-color="#9F84F5"/><stop offset=".453" stop-color="#A083F5"/><stop offset=".469" stop-color="#A182F5"/><stop offset=".484" stop-color="#A182F5"/><stop offset=".5" stop-color="#A281F5"/><stop offset=".516" stop-color="#A380F5"/><stop offset=".531" stop-color="#A480F5"/><stop offset=".547" stop-color="#A57FF5"/><stop offset=".563" stop-color="#A67EF5"/><stop offset=".578" stop-color="#A77EF5"/><stop offset=".594" stop-color="#A87DF4"/><stop offset=".609" stop-color="#A87CF4"/><stop offset=".625" stop-color="#A97CF4"/><stop offset=".641" stop-color="#AA7BF4"/><stop offset=".656" stop-color="#AB7AF4"/><stop offset=".672" stop-color="#AC7AF4"/><stop offset=".688" stop-color="#AD79F4"/><stop offset=".703" stop-color="#AE78F4"/><stop offset=".719" stop-color="#AE78F4"/><stop offset=".734" stop-color="#AF77F4"/><stop offset=".75" stop-color="#B076F4"/><stop offset=".766" stop-color="#B176F4"/><stop offset=".781" stop-color="#B275F4"/><stop offset=".797" stop-color="#B374F4"/><stop offset=".813" stop-color="#B474F4"/><stop offset=".828" stop-color="#B473F4"/><stop offset=".844" stop-color="#B572F4"/><stop offset=".859" stop-color="#B672F4"/><stop offset=".875" stop-color="#B771F4"/><stop offset=".891" stop-color="#B870F3"/><stop offset=".906" stop-color="#B970F3"/><stop offset=".922" stop-color="#B96FF3"/><stop offset=".938" stop-color="#BA6EF3"/><stop offset=".953" stop-color="#BB6EF3"/><stop offset=".969" stop-color="#BC6DF3"/><stop offset=".984" stop-color="#BD6CF3"/><stop offset="1" stop-color="#BE6CF3"/></linearGradient><linearGradient id="k" x1="108.346" x2="77.306" y1="58.818" y2="98.581" gradientUnits="userSpaceOnUse"><stop stop-color="#9E84F5"/><stop offset=".008" stop-color="#9E84F5"/><stop offset=".016" stop-color="#9F84F5"/><stop offset=".023" stop-color="#9F83F5"/><stop offset=".031" stop-color="#A083F5"/><stop offset=".039" stop-color="#A083F5"/><stop offset=".047" stop-color="#A182F5"/><stop offset=".055" stop-color="#A182F5"/><stop offset=".063" stop-color="#A281F5"/><stop offset=".07" stop-color="#A281F5"/><stop offset=".078" stop-color="#A381F5"/><stop offset=".086" stop-color="#A380F5"/><stop offset=".094" stop-color="#A480F5"/><stop offset=".102" stop-color="#A47FF5"/><stop offset=".109" stop-color="#A57FF5"/><stop offset=".125" stop-color="#A67EF5"/><stop offset=".141" stop-color="#A77EF5"/><stop offset=".156" stop-color="#A87DF4"/><stop offset=".172" stop-color="#A97CF4"/><stop offset=".188" stop-color="#AA7BF4"/><stop offset=".203" stop-color="#AB7BF4"/><stop offset=".219" stop-color="#AC7AF4"/><stop offset=".234" stop-color="#AD79F4"/><stop offset=".25" stop-color="#AD78F4"/><stop offset=".266" stop-color="#AE78F4"/><stop offset=".281" stop-color="#AF77F4"/><stop offset=".297" stop-color="#B076F4"/><stop offset=".313" stop-color="#B175F4"/><stop offset=".328" stop-color="#B274F4"/><stop offset=".344" stop-color="#B374F4"/><stop offset=".359" stop-color="#B473F4"/><stop offset=".375" stop-color="#B572F4"/><stop offset=".391" stop-color="#B671F4"/><stop offset=".406" stop-color="#B771F3"/><stop offset=".422" stop-color="#B870F3"/><stop offset=".438" stop-color="#B96FF3"/><stop offset=".453" stop-color="#BA6EF3"/><stop offset=".469" stop-color="#BB6EF3"/><stop offset=".484" stop-color="#BC6DF3"/><stop offset=".5" stop-color="#BD6CF3"/><stop offset=".516" stop-color="#BE6CF3"/><stop offset=".531" stop-color="#BF6BF3"/><stop offset=".547" stop-color="#C06AF3"/><stop offset=".563" stop-color="#C169F3"/><stop offset=".578" stop-color="#C269F3"/><stop offset=".594" stop-color="#C368F3"/><stop offset=".609" stop-color="#C467F3"/><stop offset=".625" stop-color="#C566F3"/><stop offset=".641" stop-color="#C566F3"/><stop offset=".656" stop-color="#C665F3"/><stop offset=".672" stop-color="#C764F2"/><stop offset=".688" stop-color="#C864F2"/><stop offset=".703" stop-color="#C963F2"/><stop offset=".719" stop-color="#CA62F2"/><stop offset=".734" stop-color="#CB61F2"/><stop offset=".75" stop-color="#CC61F2"/><stop offset=".766" stop-color="#CD60F2"/><stop offset=".781" stop-color="#CE5FF2"/><stop offset=".797" stop-color="#CF5FF2"/><stop offset=".813" stop-color="#D05EF2"/><stop offset=".828" stop-color="#D05DF2"/><stop offset=".844" stop-color="#D15CF2"/><stop offset=".859" stop-color="#D25CF2"/><stop offset=".875" stop-color="#D35BF2"/><stop offset=".891" stop-color="#D45AF2"/><stop offset=".906" stop-color="#D55AF2"/><stop offset=".922" stop-color="#D659F2"/><stop offset=".938" stop-color="#D758F2"/><stop offset=".953" stop-color="#D858F1"/><stop offset=".969" stop-color="#D857F1"/><stop offset=".984" stop-color="#D956F1"/><stop offset="1" stop-color="#DA56F1"/></linearGradient><linearGradient id="n" x1="118.115" x2="95.986" y1="75.8" y2="104.149" gradientUnits="userSpaceOnUse"><stop stop-color="#A77DF4"/><stop offset=".016" stop-color="#A87DF4"/><stop offset=".031" stop-color="#A87CF4"/><stop offset=".047" stop-color="#A97CF4"/><stop offset=".063" stop-color="#AA7BF4"/><stop offset=".078" stop-color="#AB7BF4"/><stop offset=".094" stop-color="#AB7AF4"/><stop offset=".109" stop-color="#AC79F4"/><stop offset=".125" stop-color="#AD79F4"/><stop offset=".141" stop-color="#AD78F4"/><stop offset=".156" stop-color="#AE78F4"/><stop offset=".172" stop-color="#AF77F4"/><stop offset=".188" stop-color="#B077F4"/><stop offset=".203" stop-color="#B076F4"/><stop offset=".219" stop-color="#B176F4"/><stop offset=".234" stop-color="#B275F4"/><stop offset=".25" stop-color="#B275F4"/><stop offset=".266" stop-color="#B374F4"/><stop offset=".281" stop-color="#B473F4"/><stop offset=".297" stop-color="#B473F4"/><stop offset=".313" stop-color="#B572F4"/><stop offset=".328" stop-color="#B672F4"/><stop offset=".344" stop-color="#B671F4"/><stop offset=".359" stop-color="#B771F4"/><stop offset=".375" stop-color="#B870F3"/><stop offset=".391" stop-color="#B970F3"/><stop offset=".406" stop-color="#B96FF3"/><stop offset=".422" stop-color="#BA6FF3"/><stop offset=".438" stop-color="#BB6EF3"/><stop offset=".453" stop-color="#BB6EF3"/><stop offset=".469" stop-color="#BC6DF3"/><stop offset=".484" stop-color="#BD6DF3"/><stop offset=".5" stop-color="#BD6CF3"/><stop offset=".516" stop-color="#BE6BF3"/><stop offset=".531" stop-color="#BF6BF3"/><stop offset=".547" stop-color="#BF6AF3"/><stop offset=".563" stop-color="#C06AF3"/><stop offset=".578" stop-color="#C169F3"/><stop offset=".594" stop-color="#C169F3"/><stop offset=".609" stop-color="#C268F3"/><stop offset=".625" stop-color="#C368F3"/><stop offset=".641" stop-color="#C367F3"/><stop offset=".656" stop-color="#C467F3"/><stop offset=".672" stop-color="#C566F3"/><stop offset=".688" stop-color="#C566F3"/><stop offset=".703" stop-color="#C665F3"/><stop offset=".719" stop-color="#C765F3"/><stop offset=".734" stop-color="#C764F2"/><stop offset=".75" stop-color="#C864F2"/><stop offset=".766" stop-color="#C963F2"/><stop offset=".781" stop-color="#C963F2"/><stop offset=".797" stop-color="#CA62F2"/><stop offset=".813" stop-color="#CB62F2"/><stop offset=".828" stop-color="#CB61F2"/><stop offset=".844" stop-color="#CC61F2"/><stop offset=".859" stop-color="#CD60F2"/><stop offset=".875" stop-color="#CD60F2"/><stop offset=".891" stop-color="#CE5FF2"/><stop offset=".906" stop-color="#CE5FF2"/><stop offset=".922" stop-color="#CF5EF2"/><stop offset=".938" stop-color="#D05EF2"/><stop offset=".953" stop-color="#D05DF2"/><stop offset=".969" stop-color="#D15DF2"/><stop offset=".984" stop-color="#D25CF2"/><stop offset="1" stop-color="#D25CF2"/></linearGradient><linearGradient id="q" x1="119.589" x2="97.458" y1="22.57" y2="50.92" gradientUnits="userSpaceOnUse"><stop stop-color="#6FA9F8"/><stop offset=".016" stop-color="#6FA9F8"/><stop offset=".031" stop-color="#70A8F8"/><stop offset=".047" stop-color="#71A7F8"/><stop offset=".063" stop-color="#72A7F8"/><stop offset=".078" stop-color="#72A6F8"/><stop offset=".094" stop-color="#73A6F8"/><stop offset=".109" stop-color="#74A5F8"/><stop offset=".125" stop-color="#75A4F8"/><stop offset=".141" stop-color="#75A4F8"/><stop offset=".156" stop-color="#76A3F8"/><stop offset=".172" stop-color="#77A3F8"/><stop offset=".188" stop-color="#78A2F7"/><stop offset=".203" stop-color="#78A1F7"/><stop offset=".219" stop-color="#79A1F7"/><stop offset=".234" stop-color="#7AA0F7"/><stop offset=".25" stop-color="#7BA0F7"/><stop offset=".266" stop-color="#7C9FF7"/><stop offset=".281" stop-color="#7C9EF7"/><stop offset=".297" stop-color="#7D9EF7"/><stop offset=".313" stop-color="#7E9DF7"/><stop offset=".328" stop-color="#7F9DF7"/><stop offset=".344" stop-color="#7F9CF7"/><stop offset=".359" stop-color="#809CF7"/><stop offset=".375" stop-color="#819BF7"/><stop offset=".391" stop-color="#829AF7"/><stop offset=".406" stop-color="#829AF7"/><stop offset=".422" stop-color="#8399F7"/><stop offset=".438" stop-color="#8499F7"/><stop offset=".453" stop-color="#8598F7"/><stop offset=".469" stop-color="#8597F7"/><stop offset=".484" stop-color="#8697F7"/><stop offset=".5" stop-color="#8796F7"/><stop offset=".516" stop-color="#8896F6"/><stop offset=".531" stop-color="#8895F6"/><stop offset=".547" stop-color="#8995F6"/><stop offset=".563" stop-color="#8A94F6"/><stop offset=".578" stop-color="#8B93F6"/><stop offset=".594" stop-color="#8B93F6"/><stop offset=".609" stop-color="#8C92F6"/><stop offset=".625" stop-color="#8D92F6"/><stop offset=".641" stop-color="#8D91F6"/><stop offset=".656" stop-color="#8E91F6"/><stop offset=".672" stop-color="#8F90F6"/><stop offset=".688" stop-color="#908FF6"/><stop offset=".703" stop-color="#908FF6"/><stop offset=".719" stop-color="#918EF6"/><stop offset=".734" stop-color="#928EF6"/><stop offset=".75" stop-color="#938DF6"/><stop offset=".766" stop-color="#938DF6"/><stop offset=".781" stop-color="#948CF6"/><stop offset=".797" stop-color="#958BF6"/><stop offset=".813" stop-color="#968BF6"/><stop offset=".828" stop-color="#968AF6"/><stop offset=".844" stop-color="#978AF6"/><stop offset=".859" stop-color="#9889F5"/><stop offset=".875" stop-color="#9889F5"/><stop offset=".891" stop-color="#9988F5"/><stop offset=".906" stop-color="#9A87F5"/><stop offset=".922" stop-color="#9B87F5"/><stop offset=".938" stop-color="#9B86F5"/><stop offset=".953" stop-color="#9C86F5"/><stop offset=".969" stop-color="#9D85F5"/><stop offset=".984" stop-color="#9E85F5"/><stop offset="1" stop-color="#9E84F5"/></linearGradient><linearGradient id="t" x1="89.537" x2="67.422" y1="48.718" y2="77.048" gradientUnits="userSpaceOnUse"><stop stop-color="#A381F5"/><stop offset=".016" stop-color="#A380F5"/><stop offset=".031" stop-color="#A480F5"/><stop offset=".047" stop-color="#A47FF5"/><stop offset=".063" stop-color="#A57FF5"/><stop offset=".078" stop-color="#A67EF5"/><stop offset=".094" stop-color="#A77EF5"/><stop offset=".109" stop-color="#A77DF5"/><stop offset=".125" stop-color="#A87DF4"/><stop offset=".141" stop-color="#A97CF4"/><stop offset=".156" stop-color="#A97BF4"/><stop offset=".172" stop-color="#AA7BF4"/><stop offset=".188" stop-color="#AB7AF4"/><stop offset=".203" stop-color="#AC7AF4"/><stop offset=".219" stop-color="#AC79F4"/><stop offset=".234" stop-color="#AD79F4"/><stop offset=".25" stop-color="#AE78F4"/><stop offset=".266" stop-color="#AE78F4"/><stop offset=".281" stop-color="#AF77F4"/><stop offset=".297" stop-color="#B077F4"/><stop offset=".313" stop-color="#B076F4"/><stop offset=".328" stop-color="#B175F4"/><stop offset=".344" stop-color="#B275F4"/><stop offset=".359" stop-color="#B374F4"/><stop offset=".375" stop-color="#B374F4"/><stop offset=".391" stop-color="#B473F4"/><stop offset=".406" stop-color="#B573F4"/><stop offset=".422" stop-color="#B572F4"/><stop offset=".438" stop-color="#B672F4"/><stop offset=".453" stop-color="#B771F4"/><stop offset=".469" stop-color="#B771F3"/><stop offset=".484" stop-color="#B870F3"/><stop offset=".5" stop-color="#B970F3"/><stop offset=".516" stop-color="#B96FF3"/><stop offset=".531" stop-color="#BA6FF3"/><stop offset=".547" stop-color="#BB6EF3"/><stop offset=".563" stop-color="#BB6DF3"/><stop offset=".578" stop-color="#BC6DF3"/><stop offset=".594" stop-color="#BD6CF3"/><stop offset=".609" stop-color="#BD6CF3"/><stop offset=".625" stop-color="#BE6BF3"/><stop offset=".641" stop-color="#BF6BF3"/><stop offset=".656" stop-color="#BF6AF3"/><stop offset=".672" stop-color="#C06AF3"/><stop offset=".688" stop-color="#C169F3"/><stop offset=".703" stop-color="#C269F3"/><stop offset=".719" stop-color="#C268F3"/><stop offset=".734" stop-color="#C368F3"/><stop offset=".75" stop-color="#C467F3"/><stop offset=".766" stop-color="#C467F3"/><stop offset=".781" stop-color="#C566F3"/><stop offset=".797" stop-color="#C666F3"/><stop offset=".813" stop-color="#C665F3"/><stop offset=".828" stop-color="#C765F3"/><stop offset=".844" stop-color="#C764F2"/><stop offset=".859" stop-color="#C864F2"/><stop offset=".875" stop-color="#C963F2"/><stop offset=".891" stop-color="#C963F2"/><stop offset=".906" stop-color="#CA62F2"/><stop offset=".922" stop-color="#CB62F2"/><stop offset=".938" stop-color="#CB61F2"/><stop offset=".953" stop-color="#CC61F2"/><stop offset=".969" stop-color="#CD60F2"/><stop offset=".984" stop-color="#CD60F2"/><stop offset="1" stop-color="#CE5FF2"/></linearGradient></defs></svg>